<svg width="20" height="19" viewBox="0 0 20 19" fill="none" xmlns="http://www.w3.org/2000/svg">
<path d="M4.58334 17.4167C4.25 17.4167 3.95834 17.298 3.70834 17.0605C3.45834 16.823 3.33334 16.5459 3.33334 16.2292V2.77087C3.33334 2.45421 3.45834 2.17712 3.70834 1.93962C3.95834 1.70212 4.25 1.58337 4.58334 1.58337H15.4167C15.75 1.58337 16.0417 1.70212 16.2917 1.93962C16.5417 2.17712 16.6667 2.45421 16.6667 2.77087V16.2292C16.6667 16.5459 16.5417 16.823 16.2917 17.0605C16.0417 17.298 15.75 17.4167 15.4167 17.4167H4.58334ZM4.58334 16.2292H15.4167V2.77087H14.1667V7.54067C14.1667 7.64622 14.1146 7.72869 14.0104 7.78806C13.9063 7.84744 13.7986 7.85074 13.6875 7.79796L12.4375 7.10525C12.3389 7.05247 12.2379 7.02608 12.1344 7.02608C12.0309 7.02608 11.9306 7.05247 11.8333 7.10525L10.5833 7.79796C10.4722 7.85074 10.3681 7.84744 10.2708 7.78806C10.1736 7.72869 10.125 7.64622 10.125 7.54067V2.77087H4.58334V16.2292ZM10.125 7.54067C10.125 7.64622 10.1736 7.72869 10.2708 7.78806C10.3681 7.84744 10.4722 7.85074 10.5833 7.79796L11.8333 7.10525C11.9319 7.05247 12.0329 7.02608 12.1364 7.02608C12.2399 7.02608 12.3472 7.05247 12.4583 7.10525L13.6875 7.79796C13.7986 7.85074 13.9063 7.84744 14.0104 7.78806C14.1146 7.72869 14.1667 7.64622 14.1667 7.54067C14.1667 7.66457 14.1146 7.75493 14.0104 7.81173C13.9063 7.86852 13.7986 7.86393 13.6875 7.79796L12.4375 7.12504C12.3389 7.05907 12.2379 7.02608 12.1344 7.02608C12.0309 7.02608 11.9306 7.05907 11.8333 7.12504L10.5833 7.79796C10.4722 7.86393 10.3681 7.86852 10.2708 7.81173C10.1736 7.75493 10.125 7.66457 10.125 7.54067Z" fill="url(#paint0_linear_10_39)"/>
<defs>
<linearGradient id="paint0_linear_10_39" x1="10" y1="1.58337" x2="10" y2="17.4167" gradientUnits="userSpaceOnUse">
<stop stop-color="#66BDD6"/>
<stop offset="1" stop-color="#51AAC2"/>
</linearGradient>
</defs>
</svg>
