<svg width="20" height="20" viewBox="0 0 20 20" fill="none" xmlns="http://www.w3.org/2000/svg">
<path d="M10 18.3334C8.83334 18.3334 7.74306 18.1147 6.72917 17.6772C5.71528 17.2397 4.83334 16.6459 4.08334 15.8959C3.33334 15.1459 2.74306 14.2605 2.31251 13.2397C1.88195 12.2188 1.66667 11.1251 1.66667 9.95841C1.66667 8.79175 1.88195 7.70494 2.31251 6.698C2.74306 5.69105 3.33334 4.81258 4.08334 4.06258C4.83334 3.31258 5.71528 2.72578 6.72917 2.30216C7.74306 1.87855 8.83334 1.66675 10 1.66675C11.1667 1.66675 12.2569 1.87855 13.2708 2.30216C14.2847 2.72578 15.1667 3.31258 15.9167 4.06258C16.6667 4.81258 17.2569 5.69105 17.6875 6.698C18.1181 7.70494 18.3333 8.79175 18.3333 9.95841C18.3333 11.1251 18.1181 12.2188 17.6875 13.2397C17.2569 14.2605 16.6667 15.1459 15.9167 15.8959C15.1667 16.6459 14.2847 17.2397 13.2708 17.6772C12.2569 18.1147 11.1667 18.3334 10 18.3334ZM10 17.1251C10.4861 16.6251 10.8924 16.0522 11.2188 15.4063C11.5451 14.7605 11.8125 13.9931 12.0208 13.1042H8C8.19445 13.9376 8.45487 14.6876 8.78125 15.3542C9.10764 16.0209 9.51389 16.6112 10 17.1251ZM8.22917 16.8751C7.88195 16.3473 7.58334 15.7779 7.33334 15.1667C7.08334 14.5556 6.875 13.8681 6.70834 13.1042H3.58334C4.11112 14.0904 4.72223 14.8647 5.41667 15.4272C6.11112 15.9897 7.04862 16.4723 8.22917 16.8751ZM11.7917 16.8542C12.7917 16.5348 13.691 16.0556 14.4896 15.4167C15.2882 14.7779 15.9306 14.007 16.4167 13.1042H13.3125C13.1319 13.8542 12.9201 14.5348 12.6771 15.1459C12.434 15.757 12.1389 16.3265 11.7917 16.8542ZM3.16667 11.8542H6.47917C6.4375 11.4792 6.4132 11.1424 6.40625 10.8438C6.39931 10.5452 6.39584 10.2501 6.39584 9.95841C6.39584 9.61119 6.40278 9.30216 6.41667 9.03133C6.43056 8.7605 6.45834 8.45841 6.5 8.12508H3.16667C3.06945 8.45841 3.00348 8.75703 2.96876 9.02091C2.93403 9.2848 2.91667 9.5973 2.91667 9.95841C2.91667 10.3195 2.93403 10.6424 2.96876 10.9272C3.00348 11.2119 3.06945 11.5209 3.16667 11.8542ZM7.77084 11.8542H12.25C12.3056 11.4237 12.3403 11.073 12.3542 10.8022C12.3681 10.5313 12.375 10.2501 12.375 9.95841C12.375 9.68064 12.3681 9.41328 12.3542 9.15633C12.3403 8.89939 12.3056 8.55564 12.25 8.12508H7.77084C7.71528 8.55564 7.68056 8.89939 7.66667 9.15633C7.65278 9.41328 7.64584 9.68064 7.64584 9.95841C7.64584 10.2501 7.65278 10.5313 7.66667 10.8022C7.68056 11.073 7.71528 11.4237 7.77084 11.8542ZM13.5 11.8542H16.8333C16.9306 11.5209 16.9965 11.2119 17.0313 10.9272C17.066 10.6424 17.0833 10.3195 17.0833 9.95841C17.0833 9.5973 17.066 9.2848 17.0313 9.02091C16.9965 8.75703 16.9306 8.45841 16.8333 8.12508H13.5208C13.5625 8.61119 13.5903 8.98272 13.6042 9.23966C13.6181 9.49661 13.625 9.73619 13.625 9.95841C13.625 10.264 13.6146 10.5522 13.5938 10.823C13.5729 11.0938 13.5417 11.4376 13.5 11.8542ZM13.2917 6.87508H16.4167C15.9583 5.91675 15.3299 5.11814 14.5313 4.47925C13.7326 3.84036 12.8125 3.38897 11.7708 3.12508C12.1181 3.63897 12.4132 4.19453 12.6563 4.79175C12.8993 5.38897 13.1111 6.08341 13.2917 6.87508ZM8 6.87508H12.0417C11.8889 6.13897 11.6319 5.42716 11.2708 4.73966C10.9097 4.05216 10.4861 3.44453 10 2.91675C9.55556 3.29175 9.18056 3.7848 8.875 4.39591C8.56945 5.00703 8.27778 5.83341 8 6.87508ZM3.58334 6.87508H6.72917C6.88195 6.12508 7.07639 5.45494 7.3125 4.86466C7.54862 4.27439 7.84723 3.70147 8.20834 3.14591C7.16667 3.4098 6.25695 3.85425 5.47917 4.47925C4.70139 5.10425 4.06945 5.90286 3.58334 6.87508Z" fill="url(#paint0_linear_10_48)"/>
<defs>
<linearGradient id="paint0_linear_10_48" x1="10" y1="1.66675" x2="10" y2="18.3334" gradientUnits="userSpaceOnUse">
<stop stop-color="#66BDD6"/>
<stop offset="1" stop-color="#51AAC2"/>
</linearGradient>
</defs>
</svg>
